<svg width="30" height="30" viewBox="0 0 30 30" fill="none" xmlns="http://www.w3.org/2000/svg">
<g id="Icon">
<path id="Vector" d="M3.75 6.25C3.75 5.58696 4.01339 4.95107 4.48223 4.48223C4.95107 4.01339 5.58696 3.75 6.25 3.75H10.35C10.6122 3.7502 10.8678 3.83287 11.0804 3.98631C11.2931 4.13975 11.4521 4.3562 11.535 4.605L13.4075 10.2213C13.5024 10.5067 13.4912 10.8167 13.3759 11.0946C13.2606 11.3724 13.0491 11.5993 12.78 11.7338L9.95875 13.1463C11.3416 16.2069 13.7931 18.6584 16.8537 20.0413L18.2662 17.22C18.4007 16.9509 18.6276 16.7394 18.9054 16.6241C19.1833 16.5088 19.4933 16.4976 19.7787 16.5925L25.395 18.465C25.644 18.5479 25.8606 18.7071 26.0141 18.9201C26.1675 19.133 26.2501 19.3888 26.25 19.6512V23.75C26.25 24.413 25.9866 25.0489 25.5178 25.5178C25.0489 25.9866 24.413 26.25 23.75 26.25H22.5C12.145 26.25 3.75 17.855 3.75 7.5V6.25Z" stroke="#504F4F" stroke-width="2" stroke-linecap="round" stroke-linejoin="round"/>
</g>
</svg>
